<svg width="42" height="26" viewBox="0 0 42 26" fill="none" xmlns="http://www.w3.org/2000/svg">
<rect width="42" height="26" fill="#F5F5F5"/>
<g id="Frame 1" clip-path="url(#clip0_15791_4318)">
<rect width="1920" height="1176" transform="translate(-375 -243)" fill="white"/>
<g id="Rectangle 19073" filter="url(#filter0_d_15791_4318)">
<rect x="-56" y="-129" width="910" height="808" rx="10" fill="white"/>
<rect x="-56" y="-129" width="910" height="808" rx="10" stroke="#D6D6D6"/>
</g>
<g id="Group 1000002702">
<rect id="Rectangle 19216" x="-17.5" y="-19.5" width="237" height="138" rx="9.5" fill="#EFEEFF" stroke="black"/>
<g id="Group 35262">
<path id="Vector" d="M31.9858 11.7444C32.3172 11.7444 32.635 11.6128 32.8693 11.3785C33.1036 11.1442 33.2353 10.8264 33.2353 10.495C33.2353 10.1637 33.1036 9.84588 32.8693 9.61157C32.635 9.37726 32.3172 9.24563 31.9858 9.24563H27.9877C28.1962 10.0652 28.3333 10.9012 28.3975 11.7444H31.9858ZM28.9873 -1.68502e-05C26.9783 0.00290528 24.9973 0.471627 23.2 1.36933C24.9062 2.85133 26.2703 4.68607 27.1981 6.7468H29.2871V4.99763C29.2871 4.66626 29.4187 4.34847 29.6531 4.11416C29.8874 3.87985 30.2052 3.74822 30.5365 3.74822C30.8679 3.74822 31.1857 3.87985 31.42 4.11416C31.6543 4.34847 31.7859 4.66626 31.7859 4.99763V6.7468H32.0358C32.761 6.74291 33.4717 6.95062 34.0807 7.3445C34.6896 7.73838 35.1705 8.30131 35.4643 8.96436C35.7582 9.6274 35.8523 10.3618 35.7351 11.0775C35.6179 11.7932 35.2945 12.4592 34.8045 12.9939C35.2945 13.5285 35.6179 14.1945 35.7351 14.9103C35.8523 15.626 35.7582 16.3603 35.4643 17.0234C35.1705 17.6864 34.6896 18.2494 34.0807 18.6432C33.4717 19.0371 32.761 19.2448 32.0358 19.2409H31.7859V20.9901C31.7859 21.3215 31.6543 21.6392 31.42 21.8736C31.1857 22.1079 30.8679 22.2395 30.5365 22.2395C30.2052 22.2395 29.8874 22.1079 29.6531 21.8736C29.4187 21.6392 29.2871 21.3215 29.2871 20.9901V19.2409H27.1981C26.2703 21.3016 24.9062 23.1364 23.2 24.6184C24.9541 25.4945 26.8838 25.9623 28.8444 25.9867C30.8051 26.0111 32.7458 25.5915 34.5212 24.7592C36.2966 23.927 37.8606 22.7038 39.0961 21.1812C40.3316 19.6586 41.2065 17.8761 41.6552 15.9674C42.1039 14.0586 42.1148 12.0731 41.6871 10.1595C41.2594 8.24595 40.4042 6.45398 39.1855 4.91791C37.9668 3.38183 36.4163 2.14148 34.6502 1.28978C32.884 0.438085 30.948 -0.00286055 28.9873 -1.68502e-05ZM31.9858 16.7421C32.3172 16.7421 32.635 16.6105 32.8693 16.3761C33.1036 16.1418 33.2353 15.824 33.2353 15.4927C33.2353 15.1613 33.1036 14.8435 32.8693 14.6092C32.635 14.3749 32.3172 14.2433 31.9858 14.2433H28.4175C28.3533 15.0865 28.2162 15.9225 28.0077 16.7421H31.9858Z" fill="black"/>
<path id="Vector_2" d="M12.9939 0C10.4239 0 7.91171 0.76207 5.77488 2.18986C3.63804 3.61764 1.97258 5.64701 0.989107 8.02133C0.00563147 10.3957 -0.251693 13.0083 0.249679 15.5288C0.751051 18.0494 1.98861 20.3647 3.80583 22.1819C5.62306 23.9992 7.93834 25.2367 10.4589 25.7381C12.9795 26.2395 15.5921 25.9821 17.9664 24.9987C20.3407 24.0152 22.3701 22.3497 23.7979 20.2129C25.2257 18.0761 25.9878 15.5638 25.9878 12.9939C25.9878 9.54768 24.6188 6.24265 22.1819 3.80582C19.7451 1.369 16.4401 0 12.9939 0ZM11.9944 11.1148L15.2228 12.774C16.0157 13.1772 16.6588 13.8235 17.058 14.6184C17.4573 15.4133 17.5918 16.3151 17.4418 17.1919C17.337 17.9584 17.0121 18.6779 16.5064 19.2634C16.0008 19.8489 15.3362 20.2751 14.5931 20.4903V21.4199C14.5931 21.7513 14.4615 22.069 14.2272 22.3034C13.9929 22.5377 13.6751 22.6693 13.3437 22.6693C13.0124 22.6693 12.6946 22.5377 12.4602 22.3034C12.2259 22.069 12.0943 21.7513 12.0943 21.4199V20.4903C11.3057 20.3174 10.5694 19.96 9.94562 19.4475C9.32188 18.9349 8.82851 18.2818 8.506 17.5417C8.43952 17.3915 8.40334 17.2296 8.39952 17.0653C8.3957 16.901 8.42432 16.7376 8.48374 16.5844C8.54316 16.4312 8.63221 16.2913 8.7458 16.1725C8.85939 16.0538 8.99528 15.9586 9.14569 15.8925C9.45073 15.7616 9.79513 15.7564 10.104 15.8781C10.4128 15.9997 10.6611 16.2384 10.7949 16.5422C11.0156 17.0517 11.3914 17.4786 11.8687 17.7621C12.3461 18.0456 12.9007 18.1714 13.4537 18.1215H13.6236C13.9554 18.0692 14.2616 17.9118 14.4973 17.6725C14.733 17.4332 14.8857 17.1246 14.933 16.7921C14.9975 16.4378 14.9458 16.0721 14.7855 15.7497C14.6251 15.4272 14.3648 15.1653 14.0434 15.0029L10.8149 13.3337C10.0103 12.9243 9.36119 12.2636 8.96614 11.4518C8.57108 10.6401 8.45165 9.72163 8.62595 8.83583C8.76299 7.97816 9.17559 7.18844 9.80136 6.58611C10.4271 5.98379 11.232 5.60161 12.0943 5.49741V4.58783C12.0943 4.25647 12.2259 3.93868 12.4602 3.70437C12.6946 3.47006 13.0124 3.33842 13.3437 3.33842C13.6751 3.33842 13.9929 3.47006 14.2272 3.70437C14.4615 3.93868 14.5931 4.25647 14.5931 4.58783V5.79727C15.2351 6.03413 15.8222 6.39905 16.3188 6.86985C16.8154 7.34066 17.2111 7.90751 17.4818 8.53597C17.5481 8.68551 17.5841 8.8467 17.5878 9.01023C17.5915 9.17377 17.5628 9.33643 17.5033 9.48881C17.4438 9.6412 17.3548 9.7803 17.2413 9.8981C17.1278 10.0159 16.9921 10.1101 16.8421 10.1752C16.6912 10.2414 16.5287 10.2771 16.364 10.2802C16.1993 10.2833 16.0356 10.2539 15.8823 10.1935C15.729 10.1331 15.5892 10.043 15.4709 9.92835C15.3525 9.81371 15.2581 9.6768 15.1928 9.52551C14.9734 9.01509 14.5979 8.58731 14.1203 8.30358C13.6426 8.01985 13.0873 7.89475 12.5341 7.94625C12.1778 7.9743 11.8409 8.12019 11.5767 8.3609C11.3124 8.60161 11.1359 8.92344 11.0748 9.27563C10.9922 9.63646 11.0342 10.0146 11.1939 10.3486C11.3536 10.6825 11.6217 10.9525 11.9544 11.1148H11.9944Z" fill="black"/>
</g>
</g>
</g>
<defs>
<filter id="filter0_d_15791_4318" x="-70.5" y="-139.5" width="939" height="837" filterUnits="userSpaceOnUse" color-interpolation-filters="sRGB">
<feFlood flood-opacity="0" result="BackgroundImageFix"/>
<feColorMatrix in="SourceAlpha" type="matrix" values="0 0 0 0 0 0 0 0 0 0 0 0 0 0 0 0 0 0 127 0" result="hardAlpha"/>
<feOffset dy="4"/>
<feGaussianBlur stdDeviation="7"/>
<feComposite in2="hardAlpha" operator="out"/>
<feColorMatrix type="matrix" values="0 0 0 0 0.85 0 0 0 0 0.881 0 0 0 0 1 0 0 0 0.47 0"/>
<feBlend mode="normal" in2="BackgroundImageFix" result="effect1_dropShadow_15791_4318"/>
<feBlend mode="normal" in="SourceGraphic" in2="effect1_dropShadow_15791_4318" result="shape"/>
</filter>
<clipPath id="clip0_15791_4318">
<rect width="1920" height="1176" fill="white" transform="translate(-375 -243)"/>
</clipPath>
</defs>
</svg>
